<svg xmlns="http://www.w3.org/2000/svg" xmlns:xlink="http://www.w3.org/1999/xlink" width="512" zoomAndPan="magnify" viewBox="0 0 384 383.999986" height="512" preserveAspectRatio="xMidYMid meet" version="1.0"><defs><clipPath id="e540558e1c"><path d="M 75 0 L 309 0 C 350.421875 0 384 33.578125 384 75 L 384 309 C 384 350.421875 350.421875 384 309 384 L 75 384 C 33.578125 384 0 350.421875 0 309 L 0 75 C 0 33.578125 33.578125 0 75 0 Z M 75 0 " clip-rule="nonzero"/></clipPath><clipPath id="a85e68ea12"><path d="M 0 0 L 384 0 L 384 384 L 0 384 Z M 0 0 " clip-rule="nonzero"/></clipPath><clipPath id="87590a2286"><path d="M 75 0 L 309 0 C 350.421875 0 384 33.578125 384 75 L 384 309 C 384 350.421875 350.421875 384 309 384 L 75 384 C 33.578125 384 0 350.421875 0 309 L 0 75 C 0 33.578125 33.578125 0 75 0 Z M 75 0 " clip-rule="nonzero"/></clipPath><clipPath id="a24a2b418b"><rect x="0" width="384" y="0" height="384"/></clipPath></defs><rect x="-38.4" width="460.8" fill="#ffffff" y="-38.399999" height="460.799983" fill-opacity="1"/><rect x="-38.4" width="460.8" fill="#ffffff" y="-38.399999" height="460.799983" fill-opacity="1"/><g clip-path="url(#e540558e1c)"><g><g clip-path="url(#a24a2b418b)"><g clip-path="url(#a85e68ea12)"><g clip-path="url(#87590a2286)"><rect x="-84.48" width="552.96" fill="#ffbe00" height="552.959979" y="-84.479997" fill-opacity="1"/></g></g></g></g></g><path fill="#ffbe00" d="M 390.496094 195.121094 C 390.496094 198.320312 390.417969 201.515625 390.261719 204.707031 C 390.105469 207.902344 389.867188 211.089844 389.554688 214.269531 C 389.242188 217.453125 388.851562 220.625 388.382812 223.789062 C 387.914062 226.953125 387.367188 230.101562 386.742188 233.238281 C 386.117188 236.371094 385.417969 239.492188 384.640625 242.59375 C 383.863281 245.695312 383.011719 248.777344 382.082031 251.835938 C 381.15625 254.894531 380.152344 257.929688 379.074219 260.941406 C 377.996094 263.953125 376.847656 266.933594 375.625 269.886719 C 374.398438 272.84375 373.105469 275.765625 371.738281 278.65625 C 370.371094 281.546875 368.933594 284.398438 367.425781 287.21875 C 365.917969 290.039062 364.34375 292.820312 362.699219 295.5625 C 361.054688 298.304688 359.347656 301.007812 357.570312 303.664062 C 355.792969 306.324219 353.953125 308.9375 352.046875 311.503906 C 350.144531 314.074219 348.175781 316.59375 346.148438 319.066406 C 344.121094 321.539062 342.03125 323.957031 339.882812 326.328125 C 337.738281 328.695312 335.53125 331.011719 333.273438 333.273438 C 331.011719 335.53125 328.695312 337.738281 326.328125 339.882812 C 323.957031 342.03125 321.539062 344.121094 319.066406 346.148438 C 316.59375 348.175781 314.074219 350.144531 311.503906 352.046875 C 308.9375 353.953125 306.324219 355.792969 303.664062 357.570312 C 301.007812 359.347656 298.304688 361.054688 295.5625 362.699219 C 292.820312 364.34375 290.039062 365.917969 287.21875 367.425781 C 284.398438 368.933594 281.546875 370.371094 278.65625 371.738281 C 275.765625 373.105469 272.84375 374.398438 269.886719 375.625 C 266.933594 376.847656 263.953125 377.996094 260.941406 379.074219 C 257.929688 380.152344 254.894531 381.15625 251.835938 382.082031 C 248.777344 383.011719 245.695312 383.863281 242.59375 384.640625 C 239.492188 385.417969 236.371094 386.117188 233.238281 386.742188 C 230.101562 387.367188 226.953125 387.914062 223.789062 388.382812 C 220.625 388.851562 217.453125 389.242188 214.269531 389.554688 C 211.089844 389.867188 207.902344 390.105469 204.707031 390.261719 C 201.515625 390.417969 198.320312 390.496094 195.121094 390.496094 C 191.921875 390.496094 188.726562 390.417969 185.535156 390.261719 C 182.339844 390.105469 179.152344 389.867188 175.972656 389.554688 C 172.789062 389.242188 169.617188 388.851562 166.453125 388.382812 C 163.289062 387.914062 160.140625 387.367188 157.003906 386.742188 C 153.871094 386.117188 150.75 385.417969 147.648438 384.640625 C 144.546875 383.863281 141.464844 383.011719 138.40625 382.082031 C 135.347656 381.15625 132.3125 380.152344 129.300781 379.074219 C 126.289062 377.996094 123.308594 376.847656 120.355469 375.625 C 117.398438 374.398438 114.476562 373.105469 111.585938 371.738281 C 108.695312 370.371094 105.839844 368.933594 103.023438 367.425781 C 100.203125 365.917969 97.421875 364.34375 94.679688 362.699219 C 91.9375 361.054688 89.234375 359.347656 86.578125 357.570312 C 83.917969 355.792969 81.304688 353.953125 78.734375 352.046875 C 76.167969 350.144531 73.648438 348.175781 71.175781 346.148438 C 68.703125 344.121094 66.285156 342.03125 63.914062 339.882812 C 61.546875 337.738281 59.230469 335.53125 56.96875 333.273438 C 54.710938 331.011719 52.503906 328.695312 50.359375 326.328125 C 48.210938 323.957031 46.121094 321.539062 44.09375 319.066406 C 42.066406 316.59375 40.097656 314.074219 38.195312 311.503906 C 36.289062 308.9375 34.449219 306.324219 32.671875 303.664062 C 30.894531 301.007812 29.1875 298.304688 27.542969 295.5625 C 25.898438 292.820312 24.324219 290.039062 22.816406 287.21875 C 21.308594 284.398438 19.871094 281.546875 18.503906 278.65625 C 17.136719 275.765625 15.839844 272.84375 14.617188 269.886719 C 13.394531 266.933594 12.242188 263.953125 11.167969 260.941406 C 10.089844 257.929688 9.085938 254.894531 8.160156 251.835938 C 7.230469 248.777344 6.378906 245.695312 5.601562 242.59375 C 4.824219 239.492188 4.125 236.371094 3.5 233.238281 C 2.875 230.101562 2.328125 226.953125 1.859375 223.789062 C 1.390625 220.625 1 217.453125 0.6875 214.269531 C 0.375 211.089844 0.136719 207.902344 -0.0195312 204.707031 C -0.175781 201.515625 -0.253906 198.320312 -0.253906 195.121094 C -0.253906 191.921875 -0.175781 188.726562 -0.0195312 185.535156 C 0.136719 182.339844 0.375 179.152344 0.6875 175.972656 C 1 172.789062 1.390625 169.617188 1.859375 166.453125 C 2.328125 163.289062 2.875 160.140625 3.5 157.003906 C 4.125 153.871094 4.824219 150.75 5.601562 147.648438 C 6.378906 144.546875 7.230469 141.464844 8.160156 138.40625 C 9.085938 135.347656 10.089844 132.3125 11.167969 129.300781 C 12.242188 126.289062 13.394531 123.308594 14.617188 120.355469 C 15.839844 117.398438 17.136719 114.476562 18.503906 111.585938 C 19.871094 108.695312 21.308594 105.839844 22.816406 103.023438 C 24.324219 100.203125 25.898438 97.421875 27.542969 94.679688 C 29.1875 91.9375 30.894531 89.234375 32.671875 86.578125 C 34.449219 83.917969 36.289062 81.304688 38.195312 78.734375 C 40.097656 76.167969 42.066406 73.648438 44.09375 71.175781 C 46.121094 68.703125 48.210938 66.285156 50.359375 63.914062 C 52.503906 61.546875 54.710938 59.230469 56.96875 56.96875 C 59.230469 54.710938 61.546875 52.503906 63.914062 50.359375 C 66.285156 48.210938 68.703125 46.121094 71.175781 44.09375 C 73.648438 42.066406 76.167969 40.097656 78.734375 38.195312 C 81.304688 36.289062 83.917969 34.449219 86.578125 32.671875 C 89.234375 30.894531 91.9375 29.1875 94.679688 27.542969 C 97.421875 25.898438 100.203125 24.324219 103.023438 22.816406 C 105.839844 21.308594 108.695312 19.871094 111.585938 18.503906 C 114.476562 17.136719 117.398438 15.839844 120.355469 14.617188 C 123.308594 13.394531 126.289062 12.242188 129.300781 11.167969 C 132.3125 10.089844 135.347656 9.085938 138.40625 8.160156 C 141.464844 7.230469 144.546875 6.378906 147.648438 5.601562 C 150.75 4.824219 153.871094 4.125 157.003906 3.5 C 160.140625 2.875 163.289062 2.328125 166.453125 1.859375 C 169.617188 1.390625 172.789062 1 175.972656 0.6875 C 179.152344 0.375 182.339844 0.136719 185.535156 -0.0195312 C 188.726562 -0.175781 191.921875 -0.253906 195.121094 -0.253906 C 198.320312 -0.253906 201.515625 -0.175781 204.707031 -0.0195312 C 207.902344 0.136719 211.089844 0.375 214.269531 0.6875 C 217.453125 1 220.625 1.390625 223.789062 1.859375 C 226.953125 2.328125 230.101562 2.875 233.238281 3.5 C 236.371094 4.125 239.492188 4.824219 242.59375 5.601562 C 245.695312 6.378906 248.777344 7.230469 251.835938 8.160156 C 254.894531 9.085938 257.929688 10.089844 260.941406 11.167969 C 263.953125 12.242188 266.933594 13.394531 269.886719 14.617188 C 272.84375 15.839844 275.765625 17.136719 278.65625 18.503906 C 281.546875 19.871094 284.398438 21.308594 287.21875 22.816406 C 290.039062 24.324219 292.820312 25.898438 295.5625 27.542969 C 298.304688 29.1875 301.007812 30.894531 303.664062 32.671875 C 306.324219 34.449219 308.9375 36.289062 311.503906 38.195312 C 314.074219 40.097656 316.59375 42.066406 319.066406 44.09375 C 321.539062 46.121094 323.957031 48.210938 326.328125 50.359375 C 328.695312 52.503906 331.011719 54.710938 333.273438 56.96875 C 335.53125 59.230469 337.738281 61.546875 339.882812 63.914062 C 342.03125 66.285156 344.121094 68.703125 346.148438 71.175781 C 348.175781 73.648438 350.144531 76.167969 352.046875 78.734375 C 353.953125 81.304688 355.792969 83.917969 357.570312 86.578125 C 359.347656 89.234375 361.054688 91.9375 362.699219 94.679688 C 364.34375 97.421875 365.917969 100.203125 367.425781 103.023438 C 368.933594 105.839844 370.371094 108.695312 371.738281 111.585938 C 373.105469 114.476562 374.398438 117.398438 375.625 120.355469 C 376.847656 123.308594 377.996094 126.289062 379.074219 129.300781 C 380.152344 132.3125 381.15625 135.347656 382.082031 138.40625 C 383.011719 141.464844 383.863281 144.546875 384.640625 147.648438 C 385.417969 150.75 386.117188 153.871094 386.742188 157.003906 C 387.367188 160.140625 387.914062 163.289062 388.382812 166.453125 C 388.851562 169.617188 389.242188 172.789062 389.554688 175.972656 C 389.867188 179.152344 390.105469 182.339844 390.261719 185.535156 C 390.417969 188.726562 390.496094 191.921875 390.496094 195.121094 Z M 390.496094 195.121094 " fill-opacity="1" fill-rule="nonzero"/><path fill="#fdfdfd" d="M 96.675781 261.578125 L 102.328125 233.589844 L 115.289062 231.933594 L 151.273438 231.933594 L 164.925781 233.589844 L 170.300781 261.441406 C 169.335938 261.304688 168.511719 261.304688 167.546875 261.304688 L 99.984375 261.304688 C 98.882812 261.304688 97.777344 261.304688 96.675781 261.578125 Z M 110.050781 200.085938 L 113.496094 191.121094 C 114.046875 189.46875 115.976562 188.640625 117.632812 189.328125 C 117.910156 189.46875 118.320312 189.605469 118.597656 189.882812 L 147.964844 191.121094 C 148.242188 190.296875 148.929688 189.605469 149.898438 189.328125 C 151.550781 188.640625 153.34375 189.46875 154.03125 191.261719 L 157.34375 200.085938 Z M 110.050781 200.085938 " fill-opacity="1" fill-rule="evenodd"/><path fill="#fdfdfd" d="M 88.816406 274.675781 C 90.746094 270.539062 95.019531 267.644531 99.984375 267.644531 L 167.546875 267.644531 C 172.234375 267.644531 176.230469 270.265625 178.4375 274.125 C 178.023438 274.125 177.609375 274.125 177.195312 274.125 L 93.917969 274.125 C 92.125 274.125 90.46875 274.265625 88.816406 274.675781 Z M 88.816406 274.675781 " fill-opacity="1" fill-rule="evenodd"/><path fill="#fdfdfd" d="M 186.847656 300.324219 L 80.679688 300.324219 C 78.890625 300.324219 77.371094 298.945312 77.371094 297.152344 C 77.371094 287.914062 84.816406 280.605469 93.917969 280.605469 L 177.195312 280.605469 C 184.230469 280.605469 190.019531 286.398438 190.019531 293.429688 L 190.019531 297.152344 C 190.019531 298.945312 188.640625 300.324219 186.847656 300.324219 Z M 186.847656 300.324219 " fill-opacity="1" fill-rule="evenodd"/><path fill="#fdfdfd" d="M 93.917969 228.210938 C 93.226562 228.210938 92.402344 227.9375 91.847656 227.382812 C 91.160156 226.832031 90.746094 225.867188 90.746094 224.902344 L 90.746094 224.074219 C 90.746094 219.386719 90.746094 213.457031 94.46875 209.734375 C 96.539062 207.667969 99.433594 206.566406 103.15625 206.566406 L 164.234375 206.566406 C 167.957031 206.566406 170.855469 207.667969 172.921875 209.734375 C 176.78125 213.457031 176.644531 219.386719 176.644531 224.074219 L 176.644531 224.902344 C 176.644531 225.867188 176.230469 226.695312 175.542969 227.382812 C 174.851562 227.9375 174.027344 228.210938 173.058594 228.210938 L 151.6875 225.453125 L 114.875 225.453125 L 94.46875 228.210938 C 94.191406 228.210938 94.054688 228.210938 93.917969 228.210938 Z M 93.917969 228.210938 " fill-opacity="1" fill-rule="evenodd"/><path fill="#fdfdfd" d="M 151.828125 195.535156 C 151.414062 195.535156 150.863281 195.535156 150.449219 195.535156 C 149.757812 195.535156 149.070312 195.535156 148.242188 195.535156 L 110.050781 195.535156 C 108.394531 195.535156 107.015625 194.292969 106.878906 192.640625 C 105.773438 181.332031 115.976562 169.613281 116.390625 169.0625 C 116.390625 169.0625 116.53125 168.925781 116.667969 168.785156 C 118.597656 166.992188 122.046875 161.890625 124.664062 157.617188 C 120.390625 157.34375 116.53125 156.101562 114.597656 155.410156 L 104.257812 159.132812 C 96.261719 161.890625 90.195312 161.617188 86.335938 158.445312 C 80.957031 154.03125 81.921875 145.898438 82.058594 145.070312 C 82.058594 144.65625 82.199219 144.242188 82.335938 143.96875 C 82.472656 143.691406 82.75 143.417969 83.023438 143.140625 L 100.949219 125.628906 L 104.808594 117.355469 C 105.222656 116.53125 105.914062 115.976562 106.878906 115.703125 L 115.566406 113.082031 L 117.496094 103.019531 C 117.769531 101.5 119.148438 100.398438 120.667969 100.398438 C 127.007812 100.398438 131.007812 107.566406 132.9375 111.980469 C 133.351562 111.980469 133.765625 111.980469 134.179688 111.980469 C 135.972656 112.117188 138.867188 112.53125 142.449219 113.632812 C 153.621094 117.21875 178.023438 131.558594 160.925781 185.332031 C 160.511719 186.710938 160.238281 187.675781 159.960938 188.640625 C 159.273438 191.398438 158.722656 193.191406 156.929688 194.292969 C 155.550781 195.398438 154.03125 195.535156 151.828125 195.535156 Z M 115.976562 141.347656 C 111.84375 141.347656 108.257812 137.488281 108.257812 133.074219 C 108.257812 128.664062 111.703125 125.214844 115.976562 125.214844 C 120.667969 125.214844 124.25 128.664062 124.25 133.074219 C 124.25 137.625 120.527344 141.347656 115.976562 141.347656 Z M 115.976562 131.695312 C 115.425781 131.695312 114.597656 132.109375 114.597656 133.074219 C 114.597656 134.039062 115.566406 134.867188 115.976562 134.867188 C 116.945312 134.867188 117.910156 134.039062 117.910156 133.074219 C 117.910156 131.972656 116.667969 131.695312 115.976562 131.695312 Z M 133.765625 116.53125 Z M 133.765625 116.53125 " fill-opacity="1" fill-rule="evenodd"/><path fill="#fdfdfd" d="M 106.464844 109.085938 L 102.050781 96.949219 C 101.640625 95.984375 101.777344 94.882812 102.328125 94.054688 C 102.878906 93.226562 103.84375 92.675781 104.949219 92.675781 L 106.328125 92.675781 C 126.871094 91.847656 155.550781 91.988281 166.441406 102.878906 C 169.476562 105.914062 170.992188 109.773438 170.714844 113.910156 C 170.714844 114.324219 170.578125 114.738281 170.441406 115.152344 L 168.097656 119.976562 L 175.816406 121.21875 C 176.921875 121.355469 177.75 122.046875 178.300781 123.011719 C 178.714844 123.976562 178.714844 125.078125 178.160156 126.042969 L 173.75 133.351562 L 183.125 135.972656 C 184.230469 136.246094 185.195312 137.210938 185.332031 138.453125 C 185.605469 139.695312 185.195312 140.933594 184.089844 141.625 L 175.128906 148.378906 C 175.957031 150.449219 176.644531 153.621094 176.507812 157.480469 C 176.371094 161.476562 175.265625 166.578125 171.128906 171.957031 C 174.164062 157.066406 174.714844 141.074219 168.097656 127.835938 C 163.132812 118.046875 154.722656 110.875 144.382812 107.566406 C 142.039062 106.742188 139.554688 106.1875 137.074219 105.773438 C 133.765625 99.570312 128.386719 93.917969 120.667969 93.917969 C 115.976562 93.917969 112.117188 97.226562 111.152344 101.777344 L 109.910156 107.980469 Z M 106.464844 109.085938 " fill-opacity="1" fill-rule="evenodd"/><path fill="#fdfdfd" d="M 213.871094 259.648438 L 220.90625 224.488281 L 233.453125 222.695312 L 271.644531 222.695312 L 285.019531 224.488281 L 292.050781 259.648438 C 290.945312 259.511719 289.980469 259.371094 288.878906 259.371094 L 217.183594 259.371094 C 216.078125 259.371094 214.976562 259.511719 213.871094 259.648438 Z M 228.210938 190.019531 L 229.589844 182.574219 C 230.695312 182.988281 231.933594 183.125 233.175781 183.125 C 238.554688 183.125 267.371094 183.125 272.746094 183.125 C 273.988281 183.125 275.230469 182.988281 276.46875 182.574219 L 277.847656 190.019531 Z M 228.210938 190.019531 " fill-opacity="1" fill-rule="evenodd"/><path fill="#fdfdfd" d="M 205.324219 273.710938 C 207.253906 269.164062 211.804688 265.851562 217.183594 265.851562 L 288.878906 265.851562 C 293.980469 265.851562 298.394531 268.886719 300.460938 273.296875 C 300.046875 273.160156 299.769531 273.160156 299.359375 273.160156 L 210.289062 273.160156 C 208.496094 273.160156 206.839844 273.4375 205.324219 273.710938 Z M 205.324219 273.710938 " fill-opacity="1" fill-rule="evenodd"/><path fill="#fdfdfd" d="M 309.5625 300.324219 L 196.5 300.324219 C 194.707031 300.324219 193.191406 298.945312 193.191406 297.152344 C 193.191406 287.636719 201.050781 279.640625 210.289062 279.640625 L 299.359375 279.640625 C 306.804688 279.640625 312.730469 285.570312 312.730469 293.015625 L 312.730469 297.152344 C 312.730469 298.945312 311.351562 300.324219 309.5625 300.324219 Z M 309.5625 300.324219 " fill-opacity="1" fill-rule="evenodd"/><path fill="#fdfdfd" d="M 272.746094 176.644531 C 270.953125 176.644531 234.96875 176.644531 233.175781 176.644531 C 228.761719 176.644531 224.902344 172.648438 224.902344 167.957031 C 224.902344 163.410156 228.625 159.6875 233.175781 159.6875 L 272.746094 159.6875 C 277.296875 159.6875 281.019531 163.410156 281.019531 167.957031 C 281.019531 172.648438 277.160156 176.644531 272.746094 176.644531 Z M 272.746094 176.644531 " fill-opacity="1" fill-rule="evenodd"/><path fill="#fdfdfd" d="M 295.222656 219.386719 C 295.082031 219.386719 294.945312 219.386719 294.808594 219.386719 L 272.058594 216.214844 L 233.039062 216.214844 L 211.113281 219.386719 C 210.289062 219.527344 209.324219 219.25 208.632812 218.699219 C 207.945312 218.007812 207.53125 217.183594 207.53125 216.214844 L 207.53125 215.25 C 207.53125 209.875 207.390625 203.667969 211.390625 199.671875 C 213.597656 197.601562 216.628906 196.5 220.351562 196.5 L 285.570312 196.5 C 289.429688 196.5 292.464844 197.601562 294.53125 199.671875 C 298.53125 203.667969 298.53125 209.875 298.53125 215.25 L 298.53125 216.214844 C 298.53125 217.183594 298.117188 218.007812 297.425781 218.699219 C 296.738281 219.113281 296.046875 219.386719 295.222656 219.386719 Z M 295.222656 219.386719 " fill-opacity="1" fill-rule="evenodd"/><path fill="#fdfdfd" d="M 230.417969 153.480469 L 230.417969 124.800781 C 230.417969 123.421875 231.246094 122.320312 232.484375 121.769531 C 233.589844 121.21875 235.105469 121.632812 235.933594 122.457031 L 243.929688 130.730469 L 248.894531 111.566406 C 249.308594 110.1875 250.546875 109.085938 251.925781 109.085938 C 253.445312 109.085938 254.683594 110.050781 255.097656 111.429688 L 261.304688 131.144531 L 269.988281 122.457031 C 270.953125 121.632812 272.332031 121.355469 273.4375 121.769531 C 274.675781 122.320312 275.503906 123.421875 275.503906 124.800781 L 275.503906 153.480469 C 274.539062 153.34375 273.710938 153.207031 272.746094 153.207031 L 233.175781 153.207031 C 232.210938 153.207031 231.382812 153.34375 230.417969 153.480469 Z M 230.417969 153.480469 " fill-opacity="1" fill-rule="evenodd"/><path fill="#fdfdfd" d="M 252.066406 115.566406 C 245.308594 115.566406 239.65625 109.636719 239.65625 102.742188 C 239.65625 95.433594 245.171875 89.78125 252.066406 89.78125 C 259.371094 89.78125 264.886719 95.296875 264.886719 102.742188 C 264.886719 109.773438 259.097656 115.566406 252.066406 115.566406 Z M 252.066406 115.566406 " fill-opacity="1" fill-rule="evenodd"/></svg>