<svg width="200" height="200" viewBox="0 0 200 200" xmlns="http://www.w3.org/2000/svg">
  <defs>
    <radialGradient id="bg" cx="50%" cy="50%" r="50%">
      <stop offset="0%" style="stop-color:#2D1810;stop-opacity:1" />
      <stop offset="100%" style="stop-color:#1A0F08;stop-opacity:1" />
    </radialGradient>
  </defs>
  
  <!-- Background -->
  <rect width="200" height="200" fill="url(#bg)"/>
  
  <!-- Chess board pattern -->
  <g>
    <!-- Light squares -->
    <rect x="40" y="40" width="20" height="20" fill="#F0D9B5"/>
    <rect x="80" y="40" width="20" height="20" fill="#F0D9B5"/>
    <rect x="120" y="40" width="20" height="20" fill="#F0D9B5"/>
    <rect x="160" y="40" width="20" height="20" fill="#F0D9B5"/>
    
    <rect x="60" y="60" width="20" height="20" fill="#F0D9B5"/>
    <rect x="100" y="60" width="20" height="20" fill="#F0D9B5"/>
    <rect x="140" y="60" width="20" height="20" fill="#F0D9B5"/>
    
    <rect x="40" y="80" width="20" height="20" fill="#F0D9B5"/>
    <rect x="80" y="80" width="20" height="20" fill="#F0D9B5"/>
    <rect x="120" y="80" width="20" height="20" fill="#F0D9B5"/>
    <rect x="160" y="80" width="20" height="20" fill="#F0D9B5"/>
    
    <rect x="60" y="100" width="20" height="20" fill="#F0D9B5"/>
    <rect x="100" y="100" width="20" height="20" fill="#F0D9B5"/>
    <rect x="140" y="100" width="20" height="20" fill="#F0D9B5"/>
    
    <rect x="40" y="120" width="20" height="20" fill="#F0D9B5"/>
    <rect x="80" y="120" width="20" height="20" fill="#F0D9B5"/>
    <rect x="120" y="120" width="20" height="20" fill="#F0D9B5"/>
    <rect x="160" y="120" width="20" height="20" fill="#F0D9B5"/>
    
    <rect x="60" y="140" width="20" height="20" fill="#F0D9B5"/>
    <rect x="100" y="140" width="20" height="20" fill="#F0D9B5"/>
    <rect x="140" y="140" width="20" height="20" fill="#F0D9B5"/>
    
    <rect x="40" y="160" width="20" height="20" fill="#F0D9B5"/>
    <rect x="80" y="160" width="20" height="20" fill="#F0D9B5"/>
    <rect x="120" y="160" width="20" height="20" fill="#F0D9B5"/>
    <rect x="160" y="160" width="20" height="20" fill="#F0D9B5"/>
    
    <!-- Dark squares -->
    <rect x="60" y="40" width="20" height="20" fill="#B58863"/>
    <rect x="100" y="40" width="20" height="20" fill="#B58863"/>
    <rect x="140" y="40" width="20" height="20" fill="#B58863"/>
    
    <rect x="40" y="60" width="20" height="20" fill="#B58863"/>
    <rect x="80" y="60" width="20" height="20" fill="#B58863"/>
    <rect x="120" y="60" width="20" height="20" fill="#B58863"/>
    <rect x="160" y="60" width="20" height="20" fill="#B58863"/>
    
    <rect x="60" y="80" width="20" height="20" fill="#B58863"/>
    <rect x="100" y="80" width="20" height="20" fill="#B58863"/>
    <rect x="140" y="80" width="20" height="20" fill="#B58863"/>
    
    <rect x="40" y="100" width="20" height="20" fill="#B58863"/>
    <rect x="80" y="100" width="20" height="20" fill="#B58863"/>
    <rect x="120" y="100" width="20" height="20" fill="#B58863"/>
    <rect x="160" y="100" width="20" height="20" fill="#B58863"/>
    
    <rect x="60" y="120" width="20" height="20" fill="#B58863"/>
    <rect x="100" y="120" width="20" height="20" fill="#B58863"/>
    <rect x="140" y="120" width="20" height="20" fill="#B58863"/>
    
    <rect x="40" y="140" width="20" height="20" fill="#B58863"/>
    <rect x="80" y="140" width="20" height="20" fill="#B58863"/>
    <rect x="120" y="140" width="20" height="20" fill="#B58863"/>
    <rect x="160" y="140" width="20" height="20" fill="#B58863"/>
  </g>
  
  <!-- Crown (for puzzle/tactics theme) -->
  <g transform="translate(100, 100)">
    <path d="M-15,-10 L-10,-20 L-5,-15 L0,-25 L5,-15 L10,-20 L15,-10 L10,5 L-10,5 Z" fill="#FFD700" stroke="#B8860B" stroke-width="1"/>
    <circle cx="-8" cy="-18" r="2" fill="#FF6B6B"/>
    <circle cx="0" cy="-23" r="2.5" fill="#FF6B6B"/>
    <circle cx="8" cy="-18" r="2" fill="#FF6B6B"/>
  </g>
</svg>